# xmcd
#
# Track frame offsets:
#	150
#	14523
#	26346
#	43419
#	60117
#	78090
#	94488
#	112236
#	127434
#	142257
#	163605
#	174303
#	193026
#	210324
#	222072
#	242520
#	255018
#	270816
#	285564
#	302862
#	317910
#	337983
#
# Disc length: 4714 seconds
#
# Revision: 1
# Processed by: cddbd v1.5.2PL0 Copyright (c) Steve Scherf et al.
# Submitted via: audiograbber 1.83.01
#
DISCID=36126816
DTITLE=Nederlandse Country Special - OLON-COUNTRY
DYEAR=2009
DGENRE=Country
TTITLE0=Leo Koster Band - My 911
TTITLE1=Loes Van Schaijk and Waterflow - 1000 Hearts
TTITLE2=Eddy Gee - A Beautiful Memory
TTITLE3=Cash On Delivery - Because Of Me
TTITLE4=Beansprouts - Happy Go Lucky
TTITLE5=Ad Vanderveen - Still Now
TTITLE6=Audrey Smits - I'm In Love
TTITLE7=Doreen - You Only Came Back To Leave Me
TTITLE8=Desperado - It Must Be Love
TTITLE9=Dix - Beauty Queen
TTITLE10=Angela Visser - Brand New Start
TTITLE11=Taneytown - Lie To Me
TTITLE12=Aggieland - Fading Memory
TTITLE13=The Inlaw Sisters - Two Soldiers
TTITLE14=René Wingelaar - Montana Cowboy
TTITLE15=Dick Van Altena - Arendsoog
TTITLE16=Windfall - Holy Smoke
TTITLE17=Jennemieke Snijders and Cor Mutsers - Walk With Me
TTITLE18=Change Of Key - Step In Your Mind
TTITLE19=Diablo's Bullets - I'm Your Woman
TTITLE20=René Diekman - The Taxi Driver
TTITLE21=Jody Lynn Mitchell - You
EXTD=
EXTT0=
EXTT1=
EXTT2=
EXTT3=
EXTT4=
EXTT5=
EXTT6=
EXTT7=
EXTT8=
EXTT9=
EXTT10=
EXTT11=
EXTT12=
EXTT13=
EXTT14=
EXTT15=
EXTT16=
EXTT17=
EXTT18=
EXTT19=
EXTT20=
EXTT21=
PLAYORDER=
